<svg width="1062" height="436" viewBox="0 0 1062 436" fill="none" xmlns="http://www.w3.org/2000/svg">
<path d="M406.644 53.3943C407.418 52.4771 408.676 52.1961 409.74 52.6085L414.426 47.0584C413.909 44.0483 416.011 41.4531 418.784 41.0112C419.313 40.9268 419.792 41.3315 419.801 41.8653C419.821 43.1663 420.408 44.3924 421.412 45.2293L427.866 50.6121C428.923 51.4936 429.657 52.6614 429.988 53.9892C430.74 57.0059 428.658 59.9002 425.696 60.3717C425.466 60.4085 425.244 60.3521 425.067 60.2323L422.604 63.1494L422.639 63.1784C423.761 64.1145 425.183 64.5602 426.644 64.4333C428.569 64.2657 430.446 64.854 431.928 66.0894L450.018 81.1764C451.182 82.1474 451.332 83.8715 450.356 85.0281C449.389 86.1738 447.658 86.3331 446.496 85.3644L429.834 71.4679C428.711 70.5317 427.289 70.0858 425.828 70.213C423.903 70.3802 422.026 69.7923 420.545 68.5569L406.982 57.246C405.818 56.2748 405.668 54.5507 406.644 53.3943ZM415.544 57.261L419.201 52.9285L417.696 51.6731L414.038 56.0057L415.544 57.261ZM420.551 54.0542L416.894 58.3867L418.399 59.6421L422.056 55.3096L420.551 54.0542ZM411.183 53.6243L412.688 54.8797L416.353 50.5393C415.858 50.0785 415.435 49.544 415.112 48.9702L411.183 53.6243ZM424.464 58.2209C424.244 57.5373 423.87 56.9384 423.392 56.4527L419.749 60.768L421.254 62.0234L424.464 58.2209ZM407.762 55.2358C407.785 55.4942 407.908 55.7286 408.108 55.8958L421.67 67.2068C422.793 68.143 424.215 68.5886 425.676 68.4616C427.602 68.2941 429.478 68.8823 430.959 70.1177L447.622 84.0142C448.039 84.3622 448.663 84.3083 449.013 83.894C449.36 83.4826 449.306 82.8721 448.892 82.5264L430.802 67.4393C429.677 66.5013 428.254 66.0577 426.796 66.1845C424.871 66.3517 422.994 65.7637 421.513 64.5283C419.608 62.9399 410.724 55.5304 409.378 54.408C408.703 53.845 407.687 54.3806 407.762 55.2358ZM437.119 46.6994C434.758 47.3514 434.413 47.6966 433.761 50.0575C433.524 50.9141 432.304 50.9151 432.067 50.0575C431.415 47.6966 431.07 47.3514 428.709 46.6994C427.852 46.4628 427.851 45.2417 428.709 45.005C431.07 44.353 431.415 44.0078 432.067 41.6468C432.303 40.7902 433.524 40.7892 433.761 41.6468C434.413 44.0077 434.758 44.353 437.119 45.005C437.976 45.2416 437.976 46.4626 437.119 46.6994ZM432.914 44.3539C432.539 45.0119 432.074 45.477 431.416 45.8522C432.074 46.2274 432.539 46.6925 432.914 47.3505C433.289 46.6925 433.754 46.2274 434.412 45.8522C433.754 45.477 433.289 45.0119 432.914 44.3539Z" fill="#1C1C1C"/>
<path d="M1033.66 38.7078L1031.33 40.0486L1018.68 18.1299L1011.57 22.2316L1010.94 25.2109L1008.4 24.9802L1009.26 20.8778L1019.84 14.7737L1033.66 38.7078Z" fill="#1C1C1C"/>
<path d="M1033.66 38.7078L1031.33 40.0486L1018.68 18.1299L1011.57 22.2316L1010.94 25.2109L1008.4 24.9802L1009.26 20.8778L1019.84 14.7737L1033.66 38.7078Z" fill="#1C1C1C"/>
<path d="M1002.55 32.2423C1002.32 31.3347 1002.36 30.3564 1002.68 29.4061C1002.99 28.4558 1003.55 27.5671 1004.32 26.8295C1005.09 26.0919 1006.02 25.5316 1007.04 25.2049C1008.05 24.8783 1009.11 24.797 1010.1 24.9691C1011.09 25.1412 1011.98 25.5608 1012.68 26.1854C1013.38 26.81 1013.86 27.6176 1014.09 28.5268C1014.31 29.4361 1014.26 30.4147 1013.94 31.3642C1013.62 32.3136 1013.05 33.2003 1012.28 33.9348" fill="#1C1C1C"/>
<path d="M995.725 51.1538L1019.41 56.0895L1036 46.5132L1055.59 49.7496L1057.98 41.7458L1033.25 38.1768L1019.12 46.3325L999.38 42.4714L995.725 51.1538Z" fill="#7FE9AF"/>
<path d="M1025.05 52.8335L1034.74 47.2413L1039.8 56.0045L1030.11 61.5967L1025.05 52.8335Z" fill="#1C1C1C"/>
<path d="M1026.31 63.7953L1043.64 53.7898L1045.07 56.2714L1027.74 66.2769L1026.31 63.7953Z" fill="#1C1C1C"/>
<path d="M501.061 406.531L504.473 393.798C505.009 391.795 503.816 389.728 501.813 389.191L497.263 387.972L497.507 387.059C497.641 386.559 497.345 386.045 496.844 385.911L492.971 384.873C492.832 383.122 491.596 381.581 489.847 381.112C488.098 380.644 486.257 381.36 485.261 382.807L481.387 381.769C480.887 381.635 480.373 381.932 480.239 382.432L479.994 383.345L475.445 382.126C473.441 381.589 471.374 382.782 470.838 384.785L461.58 419.336C461.043 421.339 462.236 423.406 464.24 423.942C495.166 432.22 493.338 431.76 493.535 431.769C500.866 434.178 508.46 429.836 510.381 422.667C512.256 415.667 508.1 408.417 501.061 406.531ZM481.807 383.823L485.48 384.807C485.931 384.928 486.401 384.699 486.585 384.27C487.042 383.201 488.236 382.622 489.362 382.923C490.487 383.225 491.232 384.323 491.093 385.478C491.038 385.941 491.331 386.375 491.781 386.495L495.454 387.479C495.283 388.118 495.136 388.667 494.965 389.305L481.318 385.649C481.489 385.01 481.636 384.461 481.807 383.823ZM463.391 419.821L472.649 385.271C472.918 384.266 473.954 383.668 474.959 383.937L479.509 385.156L479.265 386.069C479.131 386.569 479.427 387.083 479.928 387.217L495.385 391.359C495.885 391.493 496.399 391.196 496.533 390.696L496.778 389.783L501.328 391.002C502.332 391.271 502.931 392.308 502.662 393.313L499.215 406.175C498.164 406.049 497.119 406.053 496.098 406.175L483.545 402.812C483.045 402.678 482.531 402.975 482.397 403.475C482.263 403.975 482.56 404.489 483.06 404.623L492.48 407.147C491.282 407.661 490.164 408.35 489.165 409.19L471.416 404.434C470.916 404.3 470.402 404.597 470.268 405.097C470.134 405.597 470.431 406.111 470.931 406.245L487.624 410.718C486.981 411.471 486.419 412.302 485.953 413.202L470.198 408.98C469.698 408.846 469.184 409.143 469.05 409.643C468.916 410.143 469.212 410.657 469.713 410.791L485.207 414.943C484.905 415.815 484.687 416.732 484.571 417.704L468.98 413.526C468.48 413.392 467.966 413.689 467.832 414.189C467.698 414.689 467.994 415.203 468.494 415.337L484.483 419.622C484.512 420.662 484.664 421.686 484.93 422.673L467.762 418.072C467.262 417.938 466.747 418.235 466.613 418.735C466.479 419.235 466.776 419.749 467.276 419.884L485.715 424.824C486.331 426.145 487.164 427.361 488.183 428.417L464.725 422.131C463.72 421.862 463.122 420.826 463.391 419.821ZM493.606 429.807C488.208 427.743 485.232 421.959 486.74 416.332C488.353 410.314 494.561 406.73 500.579 408.343C506.598 409.955 510.182 416.163 508.57 422.181C506.895 428.433 500.201 432.241 493.606 429.807Z" fill="#1C1C1C"/>
<path d="M500.853 412.198C499.997 412.293 499.108 412.055 498.414 411.544C495.654 409.514 491.674 410.726 490.829 413.832C490.255 415.941 491.709 418.081 491.213 421.146C490.934 422.872 490.611 424.498 491.261 425.366C492.1 426.493 493.844 426.465 494.593 425.319L496.73 422.048C496.826 421.902 497.05 421.961 497.06 422.137L497.275 426.038C497.323 426.886 497.929 427.609 498.783 427.838C501.019 428.438 501.473 425.749 501.797 425.31C504.391 419.609 505.676 420.256 506.279 417.972C507.1 414.858 504.258 411.82 500.853 412.198ZM474.22 393.971L476.496 394.581L475.886 396.858C475.752 397.358 476.049 397.872 476.549 398.006C477.049 398.14 477.564 397.843 477.698 397.343L478.308 395.066L480.584 395.676C481.085 395.81 481.599 395.514 481.733 395.013C481.867 394.513 481.57 393.999 481.07 393.865L478.793 393.255L479.403 390.978C479.537 390.478 479.24 389.964 478.74 389.83C478.24 389.696 477.726 389.993 477.592 390.493L476.982 392.77L474.705 392.16C474.205 392.026 473.691 392.323 473.557 392.823C473.423 393.323 473.72 393.837 474.22 393.971ZM484.278 400.077L496.098 403.244C496.598 403.378 497.113 403.081 497.247 402.581L498.952 396.216C499.086 395.716 498.789 395.202 498.289 395.068L486.469 391.901C485.969 391.767 485.454 392.064 485.32 392.564L483.615 398.929C483.481 399.429 483.778 399.943 484.278 400.077Z" fill="#7FE9AF"/>
<path d="M20.5914 35.9146L17.814 25.5493C17.1679 23.135 18.6107 20.636 21.0246 19.9884L25.613 18.7589L24.6775 15.2675L19.4192 16.6764C17.9183 17.0786 16.3755 16.1878 15.9724 14.6864C15.5702 13.1855 16.461 11.6426 17.9624 11.2395L33.9152 6.96575C35.4176 6.5632 36.9596 7.45345 37.3621 8.9558C37.7643 10.4567 36.8735 11.9996 35.3726 12.4018L30.1144 13.8107L31.0494 17.303L35.2905 16.1666C37.7044 15.5191 40.2044 16.9624 40.8505 19.3767L47.7028 44.95C48.3499 47.3648 46.9071 49.8638 44.4923 50.5109L40.2526 51.6469L42.3909 59.6303C42.794 61.1317 41.9032 62.6746 40.4009 63.0772C38.9 63.4793 37.3571 62.5885 36.9549 61.0877L34.8156 53.1037L30.2272 54.3332C27.8134 54.9807 25.3134 53.5374 24.6664 51.1226L20.5914 35.9146ZM27.4248 18.2735L29.2376 17.7885L28.0591 13.3905C27.9252 12.8906 28.2225 12.3757 28.7223 12.2418L34.8871 10.5899C35.6906 10.3746 35.8363 9.28833 35.1133 8.87085C34.9051 8.75066 34.6506 8.71061 34.4007 8.77757L18.4474 13.0523C17.6424 13.2679 17.5005 14.354 18.2218 14.7704C18.4299 14.8906 18.6839 14.9316 18.9338 14.8646L25.0986 13.2128C25.5984 13.0788 26.1124 13.3756 26.2473 13.8759L27.4248 18.2735ZM38.4402 52.1333L36.6275 52.6182L38.7668 60.6022C38.9824 61.4071 40.0694 61.5496 40.4858 60.8283C40.606 60.6201 40.6461 60.3657 40.5791 60.1158L38.4402 52.1333ZM38.8604 50.078L44.0068 48.699C45.4205 48.3202 46.2698 46.8492 45.891 45.4355L39.0387 19.8621C38.6599 18.4484 37.1888 17.5991 35.776 17.9785L21.5101 21.8002C20.0973 22.1796 19.2479 23.6506 19.6258 25.0638L20.2968 27.5649L29.3065 25.1507C30.8079 24.7476 32.3508 25.6384 32.7534 27.1408C33.1555 28.6417 32.2647 30.1845 30.7638 30.5867L21.7527 33.0012L22.1607 34.5239L29.6056 32.5291C31.107 32.126 32.6499 33.0168 33.0515 34.5186C33.4546 36.02 32.5638 37.5629 31.062 37.9646L23.618 39.9599L24.0251 41.4821L29.9046 39.9075C31.4055 39.5053 32.9484 40.3961 33.3506 41.897C33.7537 43.3984 32.8629 44.9413 31.3605 45.3439L25.4819 46.919L26.4791 50.6377C26.857 52.0508 28.328 52.9001 29.7418 52.5213L38.8604 50.078ZM20.7822 29.3767L21.2672 31.1894L30.2774 28.7744C31.0818 28.5596 31.2261 27.4737 30.504 27.0567C30.2958 26.9365 30.0419 26.8956 29.792 26.9625L20.7822 29.3767ZM22.6461 36.3358L23.1325 38.1481L30.5765 36.1527C31.3815 35.9371 31.5243 34.8515 30.803 34.4351C30.5949 34.3149 30.341 34.2739 30.091 34.3409L22.6461 36.3358ZM24.5115 43.2945L24.9964 45.1072L30.8756 43.5311C31.6805 43.3154 31.8224 42.2294 31.1012 41.813C30.8939 41.6933 30.64 41.6523 30.3901 41.7193L24.5115 43.2945Z" fill="#1C1C1C"/>
<path d="M795.394 300.997C795.355 301.742 795.386 302.492 795.486 303.236C795.697 304.796 796.211 306.3 796.999 307.665C797.398 308.355 797.855 308.993 798.361 309.574C799.641 311.044 801.192 312.329 802.6 313.497C802.917 313.76 803.227 314.017 803.525 314.269C805.222 315.703 806.631 317.038 807.558 318.644L811.518 325.503C813.148 328.326 816.736 329.307 819.531 327.693C821.944 326.3 823.028 323.381 822.121 320.718L821.35 318.453C820.942 317.254 821.43 315.94 822.516 315.313C823.602 314.686 824.984 314.92 825.818 315.873L827.394 317.674C829.247 319.79 832.317 320.311 834.73 318.918C837.525 317.304 838.47 313.707 836.84 310.884L832.88 304.025C831.952 302.419 831.501 300.532 831.107 298.344C831.038 297.961 830.971 297.564 830.902 297.158C830.594 295.355 830.256 293.369 829.623 291.525C829.373 290.796 829.049 290.081 828.651 289.391C825.338 283.652 818.046 281.659 812.365 284.939C812.127 285.076 811.896 285.221 811.671 285.372C811.125 285.74 811.247 286.498 811.799 286.787C812.013 286.854 812.226 286.926 812.437 287.002C812.447 287.005 812.457 287.009 812.466 287.012C812.473 287.015 812.48 287.017 812.486 287.02C813.544 287.406 814.562 287.906 815.522 288.516C816.381 289.061 816.643 290.199 816.108 291.058C815.573 291.916 814.443 292.17 813.584 291.624C811.769 290.472 809.682 289.828 807.543 289.763C805.355 289.697 803.197 290.237 801.305 291.325C799.414 292.412 797.861 294.005 796.818 295.929C796.034 297.375 795.56 298.967 795.421 300.601C795.41 300.733 795.401 300.865 795.394 300.997Z" fill="#7FE9AF"/>
<path d="M814.408 297.614C814.153 297.173 813.592 297.019 813.155 297.272L811.572 298.185C811.135 298.438 810.988 299 811.242 299.442L812.627 301.84L810.253 303.21C809.816 303.462 809.668 304.025 809.923 304.466L810.846 306.065C811.101 306.506 811.662 306.66 812.099 306.407L814.473 305.037L815.857 307.434C816.112 307.876 816.673 308.029 817.11 307.777L818.692 306.863C819.129 306.611 819.277 306.048 819.022 305.607L817.638 303.209L820.012 301.839C820.449 301.586 820.596 301.024 820.342 300.582L819.419 298.984C819.164 298.542 818.603 298.389 818.166 298.641L815.792 300.012L814.408 297.614Z" fill="#1C1C1C"/>
</svg>
